<svg enable-background="new 0 0 256 256" viewBox="0 0 256 256" xmlns="http://www.w3.org/2000/svg"><path d="m81.4 1.5c13.9-1.5 28.9-2.8 42.5 1.2 15.1 4.4 21.7 17.3 21.9 32.3.1 9.9.2 19.7 0 29.6-.4 16.3-9.2 25.5-25.3 26.6-21.3 1.5-21.3 1.5-21.3 23.3 0 6.7-.1 13.4.1 21.1 5.5-2.2 8.1-6.4 11.4-9.7 12.1-11.9 26.9-21.1 43.9-23.2 22.6-2.9 47.5-.3 68 10 24.2 12.1 35 38.8 32.7 64.8-2.7 30.4-21.6 53.3-50.1 63.9-27.4 10.2-56.7 15.4-86 14.6-30.3-.8-55.1-9.9-82.1-22.9-12.4-6-26.5-12.8-32.9-25.7-6.5-13.1-3.3-29.2-.7-43 3-16 7.7-31.6 11.9-47.4 6.7-25.6 14.2-51 21.3-76.4 6.1-21.7 20.6-36.6 44.7-39.1z"/><path d="m127.7 58.5c.3 12.9-1.1 14.4-13.2 14.6-9.2.1-18.4.3-27.6-.1-5.1-.2-6.7 1.8-6.6 6.7.2 27.6.1 55.1.1 82.7 0 4 .7 7.8 4.9 9.7 5 2.2 7.9-1.1 10.9-4.2 8.9-9.1 18-18 26.5-27.5 12.7-14 28.1-20.9 47-20 8.8.4 17.8-.2 26.4 1.1 22 3.4 39.1 20.7 42.3 41.8 3.5 22.8-6.2 44.3-26.4 54.3-47.3 23.4-95.9 30.8-146 8.3-13.5-6.1-27.2-11.8-39.4-20.4-8.6-6.1-11.5-14.1-8.8-24 12.1-45.4 23.8-90.8 36.6-136 4.9-17.2 17.6-26.8 35.9-28.2 2.8-.2 5.6-.2 8.5-.3 27.3-.2 30.4 3.1 28.9 30.9-12.3 5.4-19.8 3.9-27.4-5.6-3.1-3.9-6.5-6.6-11.6-4.4-3.3 1.5-4.2 4.6-3.7 8 .8 5.7 5 7.1 9.9 7.4 7 .3 14-.1 21 .2 4.4.4 9.3-.1 11.8 5z" fill="#fec73d"/><g fill="#d48d02"><path d="m127.7 58.5c-10.7-3.8-21.7-1.2-32.5-1.7-6.9-.3-12.9-.9-13.9-9.4-.7-6.2.5-11.5 7.4-13.3 8-2.1 13.1 1.8 15.3 9.1 1.3 4.4 3.8 5.3 7.8 5.1 5.3-.2 10.6-.1 15.9-.2z"/><path d="m146 200.7c-4.9 0-9.9.2-14.8-.1-3.9-.2-10.1 1.9-10.4-3.9-.3-6.1 6.1-4.3 9.9-4.3 9.9-.2 19.7 0 29.6-.1 17.3-.1 26.6-7.3 31.1-24.1.9-3.2.3-8.3 5.6-6.5 4.2 1.4 3 5.7 2.1 9.2-4.4 18.2-18.4 29.5-37.3 29.8-5.2.1-10.5 0-15.8 0z"/></g></svg>